<svg width="32" height="32" viewBox="0 0 32 32" fill="none" xmlns="http://www.w3.org/2000/svg">
<path d="M22.4074 28.6667C21.4094 28.6667 20.562 28.3177 19.8654 27.6197C19.1689 26.9217 18.8207 26.0741 18.8207 25.077C18.8207 24.9437 18.8668 24.6197 18.959 24.105L9.47704 18.523C9.15571 18.8563 8.77393 19.1174 8.33171 19.3063C7.88948 19.4952 7.41571 19.5897 6.91037 19.5897C5.91682 19.5897 5.07226 19.2392 4.37671 18.5383C3.68115 17.8374 3.33337 16.9913 3.33337 16C3.33337 15.0087 3.68115 14.1625 4.37671 13.4617C5.07226 12.7608 5.91682 12.4103 6.91037 12.4103C7.41571 12.4103 7.88948 12.5048 8.33171 12.6937C8.77393 12.8826 9.15571 13.1437 9.47704 13.477L18.959 7.90766C18.9062 7.74366 18.8698 7.583 18.85 7.42566C18.8305 7.26833 18.8207 7.10077 18.8207 6.923C18.8207 5.92588 19.1699 5.07833 19.8684 4.38033C20.567 3.68233 21.4154 3.33333 22.4134 3.33333C23.4114 3.33333 24.2586 3.68266 24.955 4.38133C25.6517 5.07977 26 5.928 26 6.926C26 7.924 25.651 8.77133 24.953 9.46799C24.255 10.1644 23.4075 10.5127 22.4104 10.5127C21.9026 10.5127 21.4304 10.4161 20.9937 10.223C20.5568 10.0299 20.1777 9.76666 19.8564 9.43333L10.3744 15.0153C10.4273 15.1796 10.4636 15.3402 10.4834 15.4973C10.5029 15.6547 10.5127 15.8222 10.5127 16C10.5127 16.1778 10.5029 16.3453 10.4834 16.5027C10.4636 16.6598 10.4273 16.8204 10.3744 16.9847L19.8564 22.5667C20.1777 22.2333 20.5568 21.9701 20.9937 21.777C21.4304 21.5839 21.9026 21.4873 22.4104 21.4873C23.4075 21.4873 24.255 21.8366 24.953 22.535C25.651 23.2337 26 24.082 26 25.08C26 26.078 25.6507 26.9252 24.952 27.6217C24.2536 28.3183 23.4054 28.6667 22.4074 28.6667ZM22.4104 26.6667C22.8608 26.6667 23.2384 26.5143 23.543 26.2097C23.8477 25.905 24 25.5274 24 25.077C24 24.6266 23.8477 24.249 23.543 23.9443C23.2384 23.6394 22.8608 23.487 22.4104 23.487C21.9599 23.487 21.5824 23.6394 21.2777 23.9443C20.9728 24.249 20.8204 24.6266 20.8204 25.077C20.8204 25.5274 20.9728 25.905 21.2777 26.2097C21.5824 26.5143 21.9599 26.6667 22.4104 26.6667ZM6.91037 17.5897C7.36437 17.5897 7.74493 17.4373 8.05204 17.1327C8.35937 16.828 8.51304 16.4504 8.51304 16C8.51304 15.5496 8.35937 15.172 8.05204 14.8673C7.74493 14.5627 7.36437 14.4103 6.91037 14.4103C6.46348 14.4103 6.08893 14.5627 5.78671 14.8673C5.48449 15.172 5.33337 15.5496 5.33337 16C5.33337 16.4504 5.48449 16.828 5.78671 17.1327C6.08893 17.4373 6.46348 17.5897 6.91037 17.5897ZM22.4104 8.513C22.8608 8.513 23.2384 8.36055 23.543 8.05566C23.8477 7.75099 24 7.37344 24 6.923C24 6.47255 23.8477 6.095 23.543 5.79033C23.2384 5.48566 22.8608 5.33333 22.4104 5.33333C21.9599 5.33333 21.5824 5.48566 21.2777 5.79033C20.9728 6.095 20.8204 6.47255 20.8204 6.923C20.8204 7.37344 20.9728 7.75099 21.2777 8.05566C21.5824 8.36055 21.9599 8.513 22.4104 8.513Z" fill="white"/>
</svg>
