<svg width="32" height="32" viewBox="0 0 32 32" fill="none" xmlns="http://www.w3.org/2000/svg">
<g clip-path="url(#clip0_209_112)">
<path d="M16.5175 22.171L16.001 21.8586L15.484 22.1701L9.95063 25.5034L9.94884 25.5045C9.6964 25.6573 9.38706 25.4359 9.45388 25.147C9.45388 25.1469 9.45389 25.1469 9.4539 25.1469C9.45393 25.1468 9.45395 25.1466 9.45398 25.1465L10.9205 18.8536L11.0575 18.266L10.6015 17.8709L5.70816 13.6309L5.70781 13.6306C5.48101 13.4343 5.60945 13.0727 5.8926 13.0502L5.8926 13.0502L5.89789 13.0498L12.3379 12.5031L12.9382 12.4521L13.1737 11.8976L15.6937 5.96426L15.6937 5.96426L15.6954 5.96038C15.7493 5.83183 15.8574 5.76334 16 5.76334C16.1426 5.76334 16.2506 5.83183 16.3046 5.96038L16.3059 5.96351L18.8259 11.9102L19.0612 12.4654L19.6621 12.5164L26.1021 13.0631L26.1021 13.0631L26.1073 13.0635C26.3905 13.086 26.5189 13.4476 26.2921 13.6439L26.2918 13.6442L21.3985 17.8842L20.9425 18.2794L21.0794 18.867L22.546 25.1599C22.6132 25.449 22.3037 25.6707 22.0511 25.5178L22.0508 25.5177L16.5175 22.171ZM22.0533 18.64L26.9466 14.4L22.0533 18.64Z" stroke="white" stroke-width="2"/>
</g>
<defs>
<clipPath id="clip0_209_112">
<rect width="32" height="32" fill="white"/>
</clipPath>
</defs>
</svg>
